solid OpenSCAD_Model
  facet normal 1 -0 0
    outer loop
      vertex 50 -30 2.5
      vertex 50 30 -2.5
      vertex 50 30 2.5
    endloop
  endfacet
  facet normal 1 0 0
    outer loop
      vertex 50 30 -2.5
      vertex 50 -30 2.5
      vertex 50 -30 -2.5
    endloop
  endfacet
  facet normal -0 0 1
    outer loop
      vertex -50 30 2.5
      vertex -5 28.5515 2.5
      vertex -5 30 2.5
    endloop
  endfacet
  facet normal 0 0 1
    outer loop
      vertex -50 -30 2.5
      vertex -5.6 -28.2 2.5
      vertex -50 30 2.5
    endloop
  endfacet
  facet normal 0 0 1
    outer loop
      vertex -5 28.5515 2.5
      vertex -50 30 2.5
      vertex -5.6 -28.2 2.5
    endloop
  endfacet
  facet normal 0 0 1
    outer loop
      vertex 50 30 2.5
      vertex 5.6 -28.2 2.5
      vertex 50 -30 2.5
    endloop
  endfacet
  facet normal 0 0 1
    outer loop
      vertex 5 28.5515 2.5
      vertex 50 30 2.5
      vertex 5 30 2.5
    endloop
  endfacet
  facet normal 0 0 1
    outer loop
      vertex 50 30 2.5
      vertex 5 28.5515 2.5
      vertex 5.6 -28.2 2.5
    endloop
  endfacet
  facet normal -0 0 1
    outer loop
      vertex -5 28.5515 2.5
      vertex 5.6 -28.2 2.5
      vertex 5 28.5515 2.5
    endloop
  endfacet
  facet normal 0 0 1
    outer loop
      vertex 5.6 -28.2 2.5
      vertex -5 28.5515 2.5
      vertex -5.6 -28.2 2.5
    endloop
  endfacet
  facet normal -0 0 1
    outer loop
      vertex 5.6 -29.4 2.5
      vertex 50 -30 2.5
      vertex 5.6 -28.2 2.5
    endloop
  endfacet
  facet normal -0 0 1
    outer loop
      vertex -5.6 -29.4 2.5
      vertex 50 -30 2.5
      vertex 5.6 -29.4 2.5
    endloop
  endfacet
  facet normal 0 0 1
    outer loop
      vertex -5.6 -29.4 2.5
      vertex -50 -30 2.5
      vertex 50 -30 2.5
    endloop
  endfacet
  facet normal 0 0 1
    outer loop
      vertex -5.6 -28.2 2.5
      vertex -50 -30 2.5
      vertex -5.6 -29.4 2.5
    endloop
  endfacet
  facet normal 0 0 -1
    outer loop
      vertex 5.6 -28.2 -2.5
      vertex 50 -30 -2.5
      vertex 5.6 -29.4 -2.5
    endloop
  endfacet
  facet normal 0 0 -1
    outer loop
      vertex 50 -30 -2.5
      vertex -5.6 -29.4 -2.5
      vertex 5.6 -29.4 -2.5
    endloop
  endfacet
  facet normal -0 0 -1
    outer loop
      vertex -5.6 -29.4 -2.5
      vertex -50 -30 -2.5
      vertex -5.6 -28.2 -2.5
    endloop
  endfacet
  facet normal 0 0 -1
    outer loop
      vertex -50 -30 -2.5
      vertex -5.6 -29.4 -2.5
      vertex 50 -30 -2.5
    endloop
  endfacet
  facet normal 0 0 -1
    outer loop
      vertex 50 -30 -2.5
      vertex 5.6 -28.2 -2.5
      vertex 50 30 -2.5
    endloop
  endfacet
  facet normal 0 0 -1
    outer loop
      vertex -5.6 -28.2 -2.5
      vertex 50 30 -2.5
      vertex 5.6 -28.2 -2.5
    endloop
  endfacet
  facet normal 0 0 -1
    outer loop
      vertex -50 30 -2.5
      vertex -5.6 -28.2 -2.5
      vertex -50 -30 -2.5
    endloop
  endfacet
  facet normal 0 0 -1
    outer loop
      vertex -5.6 -28.2 -2.5
      vertex -50 30 -2.5
      vertex 50 30 -2.5
    endloop
  endfacet
  facet normal -1 0 0
    outer loop
      vertex -50 -30 -2.5
      vertex -50 30 2.5
      vertex -50 30 -2.5
    endloop
  endfacet
  facet normal -1 -0 0
    outer loop
      vertex -50 30 2.5
      vertex -50 -30 -2.5
      vertex -50 -30 2.5
    endloop
  endfacet
  facet normal 0 1 0
    outer loop
      vertex 50 30 2.5
      vertex 5 30 1.05147
      vertex 5 30 2.5
    endloop
  endfacet
  facet normal 0 1 0
    outer loop
      vertex 5 30 1.05147
      vertex 50 30 -2.5
      vertex -5 30 1.05147
    endloop
  endfacet
  facet normal 0 1 -0
    outer loop
      vertex 50 30 -2.5
      vertex 5 30 1.05147
      vertex 50 30 2.5
    endloop
  endfacet
  facet normal 0 1 -0
    outer loop
      vertex -5 30 1.05147
      vertex -50 30 2.5
      vertex -5 30 2.5
    endloop
  endfacet
  facet normal 0 1 0
    outer loop
      vertex -50 30 -2.5
      vertex -5 30 1.05147
      vertex 50 30 -2.5
    endloop
  endfacet
  facet normal 0 1 0
    outer loop
      vertex -5 30 1.05147
      vertex -50 30 -2.5
      vertex -50 30 2.5
    endloop
  endfacet
  facet normal 0 -1 0
    outer loop
      vertex -50 -30 -2.5
      vertex 50 -30 2.5
      vertex -50 -30 2.5
    endloop
  endfacet
  facet normal 0 -1 -0
    outer loop
      vertex 50 -30 2.5
      vertex -50 -30 -2.5
      vertex 50 -30 -2.5
    endloop
  endfacet
  facet normal -1 0 0
    outer loop
      vertex 5.6 -29.4 -2.5
      vertex 5.6 -28.2 2.5
      vertex 5.6 -28.2 -2.5
    endloop
  endfacet
  facet normal -1 -0 0
    outer loop
      vertex 5.6 -28.2 2.5
      vertex 5.6 -29.4 -2.5
      vertex 5.6 -29.4 2.5
    endloop
  endfacet
  facet normal 1 -0 0
    outer loop
      vertex -5.6 -29.4 2.5
      vertex -5.6 -28.2 -2.5
      vertex -5.6 -28.2 2.5
    endloop
  endfacet
  facet normal 1 0 0
    outer loop
      vertex -5.6 -28.2 -2.5
      vertex -5.6 -29.4 2.5
      vertex -5.6 -29.4 -2.5
    endloop
  endfacet
  facet normal 0 -1 0
    outer loop
      vertex -5.6 -28.2 -2.5
      vertex 5.6 -28.2 2.5
      vertex -5.6 -28.2 2.5
    endloop
  endfacet
  facet normal 0 -1 -0
    outer loop
      vertex 5.6 -28.2 2.5
      vertex -5.6 -28.2 -2.5
      vertex 5.6 -28.2 -2.5
    endloop
  endfacet
  facet normal 0 1 -0
    outer loop
      vertex 5.6 -29.4 -2.5
      vertex -5.6 -29.4 2.5
      vertex 5.6 -29.4 2.5
    endloop
  endfacet
  facet normal 0 1 0
    outer loop
      vertex -5.6 -29.4 2.5
      vertex 5.6 -29.4 -2.5
      vertex -5.6 -29.4 -2.5
    endloop
  endfacet
  facet normal 1 -0 0
    outer loop
      vertex 5 30 1.05147
      vertex 5 72.2507 -39.5021
      vertex 5 30 2.5
    endloop
  endfacet
  facet normal 1 0 0
    outer loop
      vertex 5 -12.6021 45.3507
      vertex 5 30 2.5
      vertex 5 72.2507 -39.5021
    endloop
  endfacet
  facet normal 1 0 0
    outer loop
      vertex 5 -12.6021 45.3507
      vertex 5 28.5515 2.5
      vertex 5 30 2.5
    endloop
  endfacet
  facet normal 1 0 0
    outer loop
      vertex 5 28.5515 2.5
      vertex 5 -12.6021 45.3507
      vertex 5 -13.4507 44.5021
    endloop
  endfacet
  facet normal 1 0 0
    outer loop
      vertex 5 72.2507 -39.5021
      vertex 5 30 1.05147
      vertex 5 71.4021 -40.3507
    endloop
  endfacet
  facet normal -1.3502e-15 -0.707107 0.707107
    outer loop
      vertex -2.99408 -12.8932 45.0596
      vertex -5 -12.6021 45.3507
      vertex -3 -13.0264 44.9264
    endloop
  endfacet
  facet normal 0 -0.707107 0.707107
    outer loop
      vertex -2.97634 -12.7605 45.1923
      vertex -5 -12.6021 45.3507
      vertex -2.99408 -12.8932 45.0596
    endloop
  endfacet
  facet normal 7.34442e-16 -0.707107 0.707107
    outer loop
      vertex -2.94686 -12.6289 45.3239
      vertex -5 -12.6021 45.3507
      vertex -2.97634 -12.7605 45.1923
    endloop
  endfacet
  facet normal 0 -0.707107 0.707107
    outer loop
      vertex -5 -12.6021 45.3507
      vertex -2.94686 -12.6289 45.3239
      vertex -2.9384 -12.6021 45.3507
    endloop
  endfacet
  facet normal -3.0066e-16 -0.707107 0.707107
    outer loop
      vertex -5 -13.4507 44.5021
      vertex -3 -13.0264 44.9264
      vertex -5 -12.6021 45.3507
    endloop
  endfacet
  facet normal 2.71864e-15 -0.707107 0.707107
    outer loop
      vertex -3 -13.0264 44.9264
      vertex -5 -13.4507 44.5021
      vertex -2.99408 -13.1596 44.7932
    endloop
  endfacet
  facet normal 0 -0.707107 0.707107
    outer loop
      vertex -2.99408 -13.1596 44.7932
      vertex -5 -13.4507 44.5021
      vertex -2.97634 -13.2923 44.6605
    endloop
  endfacet
  facet normal -7.3331e-16 -0.707107 0.707107
    outer loop
      vertex -2.97634 -13.2923 44.6605
      vertex -5 -13.4507 44.5021
      vertex -2.94686 -13.4239 44.5289
    endloop
  endfacet
  facet normal 0 -0.707107 0.707107
    outer loop
      vertex -2.94686 -13.4239 44.5289
      vertex -5 -13.4507 44.5021
      vertex -2.9384 -13.4507 44.5021
    endloop
  endfacet
  facet normal 3.23788e-16 -0.707107 0.707107
    outer loop
      vertex 5 -12.6021 45.3507
      vertex 3 -13.0264 44.9264
      vertex 5 -13.4507 44.5021
    endloop
  endfacet
  facet normal 1.3502e-15 -0.707107 0.707107
    outer loop
      vertex 5 -12.6021 45.3507
      vertex 2.99408 -12.8932 45.0596
      vertex 3 -13.0264 44.9264
    endloop
  endfacet
  facet normal 0 -0.707107 0.707107
    outer loop
      vertex 5 -12.6021 45.3507
      vertex 2.97634 -12.7605 45.1923
      vertex 2.99408 -12.8932 45.0596
    endloop
  endfacet
  facet normal -7.3331e-16 -0.707107 0.707107
    outer loop
      vertex 5 -12.6021 45.3507
      vertex 2.94686 -12.6289 45.3239
      vertex 2.97634 -12.7605 45.1923
    endloop
  endfacet
  facet normal 0 -0.707107 0.707107
    outer loop
      vertex 2.94686 -12.6289 45.3239
      vertex 5 -12.6021 45.3507
      vertex 2.9384 -12.6021 45.3507
    endloop
  endfacet
  facet normal -2.71864e-15 -0.707107 0.707107
    outer loop
      vertex 2.99408 -13.1596 44.7932
      vertex 5 -13.4507 44.5021
      vertex 3 -13.0264 44.9264
    endloop
  endfacet
  facet normal 0 -0.707107 0.707107
    outer loop
      vertex 2.97634 -13.2923 44.6605
      vertex 5 -13.4507 44.5021
      vertex 2.99408 -13.1596 44.7932
    endloop
  endfacet
  facet normal 7.34442e-16 -0.707107 0.707107
    outer loop
      vertex 2.94686 -13.4239 44.5289
      vertex 5 -13.4507 44.5021
      vertex 2.97634 -13.2923 44.6605
    endloop
  endfacet
  facet normal 0 -0.707107 0.707107
    outer loop
      vertex 5 -13.4507 44.5021
      vertex 2.94686 -13.4239 44.5289
      vertex 2.9384 -13.4507 44.5021
    endloop
  endfacet
  facet normal 0 0.707107 -0.707107
    outer loop
      vertex 5 71.4021 -40.3507
      vertex -5 72.2507 -39.5021
      vertex 5 72.2507 -39.5021
    endloop
  endfacet
  facet normal 0 0.707107 -0.707107
    outer loop
      vertex -5 72.2507 -39.5021
      vertex 5 71.4021 -40.3507
      vertex -5 71.4021 -40.3507
    endloop
  endfacet
  facet normal -1 0 0
    outer loop
      vertex -5 30 1.05147
      vertex -5 72.2507 -39.5021
      vertex -5 71.4021 -40.3507
    endloop
  endfacet
  facet normal -1 0 0
    outer loop
      vertex -5 30 2.5
      vertex -5 72.2507 -39.5021
      vertex -5 30 1.05147
    endloop
  endfacet
  facet normal -1 0 0
    outer loop
      vertex -5 30 2.5
      vertex -5 -12.6021 45.3507
      vertex -5 72.2507 -39.5021
    endloop
  endfacet
  facet normal -1 0 0
    outer loop
      vertex -5 28.5515 2.5
      vertex -5 -12.6021 45.3507
      vertex -5 30 2.5
    endloop
  endfacet
  facet normal -1 0 -0
    outer loop
      vertex -5 -12.6021 45.3507
      vertex -5 28.5515 2.5
      vertex -5 -13.4507 44.5021
    endloop
  endfacet
  facet normal 0 0.707107 0.707107
    outer loop
      vertex 5 -12.6021 45.3507
      vertex 2.9384 -11.8243 44.5729
      vertex 2.9384 -12.6021 45.3507
    endloop
  endfacet
  facet normal 0 0.707107 0.707107
    outer loop
      vertex 2.9384 -11.8243 44.5729
      vertex 5 72.2507 -39.5021
      vertex -2.9384 -11.8243 44.5729
    endloop
  endfacet
  facet normal 0 0.707107 0.707107
    outer loop
      vertex 5 72.2507 -39.5021
      vertex 2.9384 -11.8243 44.5729
      vertex 5 -12.6021 45.3507
    endloop
  endfacet
  facet normal 0 0.707107 0.707107
    outer loop
      vertex -2.9384 -11.8243 44.5729
      vertex -5 -12.6021 45.3507
      vertex -2.9384 -12.6021 45.3507
    endloop
  endfacet
  facet normal -0 0.707107 0.707107
    outer loop
      vertex -5 72.2507 -39.5021
      vertex -2.9384 -11.8243 44.5729
      vertex 5 72.2507 -39.5021
    endloop
  endfacet
  facet normal 1.78072e-15 0.707107 0.707107
    outer loop
      vertex -2.9384 -11.8243 44.5729
      vertex -5 72.2507 -39.5021
      vertex -5 -12.6021 45.3507
    endloop
  endfacet
  facet normal 0 -0.707107 -0.707107
    outer loop
      vertex -5 -13.4507 44.5021
      vertex -2.9384 -12.6729 43.7243
      vertex -2.9384 -13.4507 44.5021
    endloop
  endfacet
  facet normal 0 -0.707106 -0.707108
    outer loop
      vertex -2.9384 -12.6729 43.7243
      vertex -5 28.5515 2.5
      vertex 2.9384 -12.6729 43.7243
    endloop
  endfacet
  facet normal -6.35151e-07 -0.707106 -0.707108
    outer loop
      vertex -5 28.5515 2.5
      vertex -2.9384 -12.6729 43.7243
      vertex -5 -13.4507 44.5021
    endloop
  endfacet
  facet normal 0 -0.707107 -0.707107
    outer loop
      vertex 2.9384 -12.6729 43.7243
      vertex 5 -13.4507 44.5021
      vertex 2.9384 -13.4507 44.5021
    endloop
  endfacet
  facet normal -0 -0.707106 -0.707108
    outer loop
      vertex 5 28.5515 2.5
      vertex 2.9384 -12.6729 43.7243
      vertex -5 28.5515 2.5
    endloop
  endfacet
  facet normal 6.35151e-07 -0.707106 -0.707108
    outer loop
      vertex 2.9384 -12.6729 43.7243
      vertex 5 28.5515 2.5
      vertex 5 -13.4507 44.5021
    endloop
  endfacet
  facet normal 0 -0.707107 -0.707106
    outer loop
      vertex -5 30 1.05147
      vertex 5 71.4021 -40.3507
      vertex 5 30 1.05147
    endloop
  endfacet
  facet normal -0 -0.707107 -0.707106
    outer loop
      vertex 5 71.4021 -40.3507
      vertex -5 30 1.05147
      vertex -5 71.4021 -40.3507
    endloop
  endfacet
  facet normal -0.995562 -0.0665458 -0.0665458
    outer loop
      vertex 2.99408 -12.1154 44.2818
      vertex 2.97634 -12.7605 45.1923
      vertex 2.97634 -11.9827 44.4145
    endloop
  endfacet
  facet normal -0.995562 -0.0665458 -0.0665458
    outer loop
      vertex 2.97634 -12.7605 45.1923
      vertex 2.99408 -12.1154 44.2818
      vertex 2.99408 -12.8932 45.0596
    endloop
  endfacet
  facet normal -0.999507 -0.0222113 -0.0222113
    outer loop
      vertex 3 -12.2486 44.1486
      vertex 2.99408 -12.8932 45.0596
      vertex 2.99408 -12.1154 44.2818
    endloop
  endfacet
  facet normal -0.999507 -0.0222113 -0.0222113
    outer loop
      vertex 2.99408 -12.8932 45.0596
      vertex 3 -12.2486 44.1486
      vertex 3 -13.0264 44.9264
    endloop
  endfacet
  facet normal -0.987686 -0.110627 -0.110627
    outer loop
      vertex 2.97634 -11.9827 44.4145
      vertex 2.94686 -12.6289 45.3239
      vertex 2.94686 -11.8511 44.5461
    endloop
  endfacet
  facet normal -0.987686 -0.110627 -0.110627
    outer loop
      vertex 2.94686 -12.6289 45.3239
      vertex 2.97634 -11.9827 44.4145
      vertex 2.97634 -12.7605 45.1923
    endloop
  endfacet
  facet normal -0.975982 -0.154045 -0.154045
    outer loop
      vertex 2.94686 -11.8511 44.5461
      vertex 2.9384 -12.6021 45.3507
      vertex 2.9384 -11.8243 44.5729
    endloop
  endfacet
  facet normal -0.975982 -0.154045 -0.154045
    outer loop
      vertex 2.9384 -12.6021 45.3507
      vertex 2.94686 -11.8511 44.5461
      vertex 2.94686 -12.6289 45.3239
    endloop
  endfacet
  facet normal 0.987686 -0.110627 -0.110627
    outer loop
      vertex -2.94686 -12.6289 45.3239
      vertex -2.97634 -11.9827 44.4145
      vertex -2.94686 -11.8511 44.5461
    endloop
  endfacet
  facet normal 0.987686 -0.110627 -0.110627
    outer loop
      vertex -2.97634 -11.9827 44.4145
      vertex -2.94686 -12.6289 45.3239
      vertex -2.97634 -12.7605 45.1923
    endloop
  endfacet
  facet normal 0.975982 0.154045 0.154045
    outer loop
      vertex -2.94686 -13.4239 44.5289
      vertex -2.9384 -12.6729 43.7243
      vertex -2.94686 -12.6461 43.7511
    endloop
  endfacet
  facet normal 0.975982 0.154045 0.154045
    outer loop
      vertex -2.9384 -12.6729 43.7243
      vertex -2.94686 -13.4239 44.5289
      vertex -2.9384 -13.4507 44.5021
    endloop
  endfacet
  facet normal -0.995562 0.0665458 0.0665458
    outer loop
      vertex 2.97634 -12.5145 43.8827
      vertex 2.99408 -13.1596 44.7932
      vertex 2.99408 -12.3818 44.0154
    endloop
  endfacet
  facet normal -0.995562 0.0665458 0.0665458
    outer loop
      vertex 2.99408 -13.1596 44.7932
      vertex 2.97634 -12.5145 43.8827
      vertex 2.97634 -13.2923 44.6605
    endloop
  endfacet
  facet normal 0.999507 0.0222113 0.0222113
    outer loop
      vertex -3 -13.0264 44.9264
      vertex -2.99408 -12.3818 44.0154
      vertex -3 -12.2486 44.1486
    endloop
  endfacet
  facet normal 0.999507 0.0222113 0.0222113
    outer loop
      vertex -2.99408 -12.3818 44.0154
      vertex -3 -13.0264 44.9264
      vertex -2.99408 -13.1596 44.7932
    endloop
  endfacet
  facet normal -0.975982 0.154045 0.154045
    outer loop
      vertex 2.9384 -12.6729 43.7243
      vertex 2.94686 -13.4239 44.5289
      vertex 2.94686 -12.6461 43.7511
    endloop
  endfacet
  facet normal -0.975982 0.154045 0.154045
    outer loop
      vertex 2.94686 -13.4239 44.5289
      vertex 2.9384 -12.6729 43.7243
      vertex 2.9384 -13.4507 44.5021
    endloop
  endfacet
  facet normal -0.999507 0.0222113 0.0222113
    outer loop
      vertex 2.99408 -12.3818 44.0154
      vertex 3 -13.0264 44.9264
      vertex 3 -12.2486 44.1486
    endloop
  endfacet
  facet normal -0.999507 0.0222113 0.0222113
    outer loop
      vertex 3 -13.0264 44.9264
      vertex 2.99408 -12.3818 44.0154
      vertex 2.99408 -13.1596 44.7932
    endloop
  endfacet
  facet normal 0.999507 -0.0222113 -0.0222113
    outer loop
      vertex -2.99408 -12.8932 45.0596
      vertex -3 -12.2486 44.1486
      vertex -2.99408 -12.1154 44.2818
    endloop
  endfacet
  facet normal 0.999507 -0.0222113 -0.0222113
    outer loop
      vertex -3 -12.2486 44.1486
      vertex -2.99408 -12.8932 45.0596
      vertex -3 -13.0264 44.9264
    endloop
  endfacet
  facet normal 0.995562 0.0665458 0.0665458
    outer loop
      vertex -2.99408 -13.1596 44.7932
      vertex -2.97634 -12.5145 43.8827
      vertex -2.99408 -12.3818 44.0154
    endloop
  endfacet
  facet normal 0.995562 0.0665458 0.0665458
    outer loop
      vertex -2.97634 -12.5145 43.8827
      vertex -2.99408 -13.1596 44.7932
      vertex -2.97634 -13.2923 44.6605
    endloop
  endfacet
  facet normal 0.975982 -0.154045 -0.154045
    outer loop
      vertex -2.9384 -12.6021 45.3507
      vertex -2.94686 -11.8511 44.5461
      vertex -2.9384 -11.8243 44.5729
    endloop
  endfacet
  facet normal 0.975982 -0.154045 -0.154045
    outer loop
      vertex -2.94686 -11.8511 44.5461
      vertex -2.9384 -12.6021 45.3507
      vertex -2.94686 -12.6289 45.3239
    endloop
  endfacet
  facet normal 0.987686 0.110627 0.110627
    outer loop
      vertex -2.97634 -13.2923 44.6605
      vertex -2.94686 -12.6461 43.7511
      vertex -2.97634 -12.5145 43.8827
    endloop
  endfacet
  facet normal 0.987686 0.110627 0.110627
    outer loop
      vertex -2.94686 -12.6461 43.7511
      vertex -2.97634 -13.2923 44.6605
      vertex -2.94686 -13.4239 44.5289
    endloop
  endfacet
  facet normal -0.987686 0.110627 0.110627
    outer loop
      vertex 2.94686 -12.6461 43.7511
      vertex 2.97634 -13.2923 44.6605
      vertex 2.97634 -12.5145 43.8827
    endloop
  endfacet
  facet normal -0.987686 0.110627 0.110627
    outer loop
      vertex 2.97634 -13.2923 44.6605
      vertex 2.94686 -12.6461 43.7511
      vertex 2.94686 -13.4239 44.5289
    endloop
  endfacet
  facet normal 0.995562 -0.0665458 -0.0665458
    outer loop
      vertex -2.97634 -12.7605 45.1923
      vertex -2.99408 -12.1154 44.2818
      vertex -2.97634 -11.9827 44.4145
    endloop
  endfacet
  facet normal 0.995562 -0.0665458 -0.0665458
    outer loop
      vertex -2.99408 -12.1154 44.2818
      vertex -2.97634 -12.7605 45.1923
      vertex -2.99408 -12.8932 45.0596
    endloop
  endfacet
  facet normal -4.23115e-13 -0.707107 0.707107
    outer loop
      vertex 2.99408 -12.1154 44.2818
      vertex 2.99408 -12.3818 44.0154
      vertex 3 -12.2486 44.1486
    endloop
  endfacet
  facet normal 7.05986e-14 -0.707107 0.707107
    outer loop
      vertex 2.97634 -11.9827 44.4145
      vertex 2.99408 -12.3818 44.0154
      vertex 2.99408 -12.1154 44.2818
    endloop
  endfacet
  facet normal -3.53657e-14 -0.707107 0.707107
    outer loop
      vertex 2.97634 -11.9827 44.4145
      vertex 2.97634 -12.5145 43.8827
      vertex 2.99408 -12.3818 44.0154
    endloop
  endfacet
  facet normal -2.46259e-12 -0.707107 0.707107
    outer loop
      vertex 2.9384 -11.8243 44.5729
      vertex 2.97634 -11.9827 44.4145
      vertex 2.94686 -11.8511 44.5461
    endloop
  endfacet
  facet normal 1.99408e-14 -0.707107 0.707107
    outer loop
      vertex 2.97634 -11.9827 44.4145
      vertex 2.9384 -11.8243 44.5729
      vertex 2.97634 -12.5145 43.8827
    endloop
  endfacet
  facet normal -1.21917e-14 -0.707107 0.707107
    outer loop
      vertex 2.9384 -12.6729 43.7243
      vertex 2.97634 -12.5145 43.8827
      vertex 2.9384 -11.8243 44.5729
    endloop
  endfacet
  facet normal -6.14699e-13 -0.707107 0.707107
    outer loop
      vertex 2.97634 -12.5145 43.8827
      vertex 2.9384 -12.6729 43.7243
      vertex 2.94686 -12.6461 43.7511
    endloop
  endfacet
  facet normal 0 -0.707107 0.707107
    outer loop
      vertex -2.9384 -11.8243 44.5729
      vertex 2.9384 -12.6729 43.7243
      vertex 2.9384 -11.8243 44.5729
    endloop
  endfacet
  facet normal 0 -0.707107 0.707107
    outer loop
      vertex -2.9384 -11.8243 44.5729
      vertex -2.9384 -12.6729 43.7243
      vertex 2.9384 -12.6729 43.7243
    endloop
  endfacet
  facet normal 2.45879e-12 -0.707107 0.707107
    outer loop
      vertex -2.97634 -11.9827 44.4145
      vertex -2.9384 -11.8243 44.5729
      vertex -2.94686 -11.8511 44.5461
    endloop
  endfacet
  facet normal -1.21917e-14 -0.707107 0.707107
    outer loop
      vertex -2.9384 -11.8243 44.5729
      vertex -2.97634 -11.9827 44.4145
      vertex -2.9384 -12.6729 43.7243
    endloop
  endfacet
  facet normal 1.99408e-14 -0.707107 0.707107
    outer loop
      vertex -2.97634 -12.5145 43.8827
      vertex -2.9384 -12.6729 43.7243
      vertex -2.97634 -11.9827 44.4145
    endloop
  endfacet
  facet normal 6.14699e-13 -0.707107 0.707107
    outer loop
      vertex -2.9384 -12.6729 43.7243
      vertex -2.97634 -12.5145 43.8827
      vertex -2.94686 -12.6461 43.7511
    endloop
  endfacet
  facet normal -3.53657e-14 -0.707107 0.707107
    outer loop
      vertex -2.99408 -12.1154 44.2818
      vertex -2.97634 -12.5145 43.8827
      vertex -2.97634 -11.9827 44.4145
    endloop
  endfacet
  facet normal 7.05986e-14 -0.707107 0.707107
    outer loop
      vertex -2.99408 -12.1154 44.2818
      vertex -2.99408 -12.3818 44.0154
      vertex -2.97634 -12.5145 43.8827
    endloop
  endfacet
  facet normal 4.23115e-13 -0.707107 0.707107
    outer loop
      vertex -2.99408 -12.3818 44.0154
      vertex -2.99408 -12.1154 44.2818
      vertex -3 -12.2486 44.1486
    endloop
  endfacet
endsolid OpenSCAD_Model
